<svg xmlns="http://www.w3.org/2000/svg" width="31.484" height="31.484" viewBox="0 0 31.484 31.484"><defs><style>.a{fill-rule:evenodd;}</style></defs><path class="a" d="M15.742,2.8a48.269,48.269,0,0,1,6.3.175,8.113,8.113,0,0,1,2.974.525,6.143,6.143,0,0,1,2.974,2.974,8.113,8.113,0,0,1,.525,2.974c0,1.574.175,2.1.175,6.3a48.269,48.269,0,0,1-.175,6.3,8.113,8.113,0,0,1-.525,2.974,6.143,6.143,0,0,1-2.974,2.974,8.113,8.113,0,0,1-2.974.525c-1.574,0-2.1.175-6.3.175a48.269,48.269,0,0,1-6.3-.175,8.113,8.113,0,0,1-2.974-.525A6.143,6.143,0,0,1,3.5,25.013a8.113,8.113,0,0,1-.525-2.974c0-1.574-.175-2.1-.175-6.3a48.269,48.269,0,0,1,.175-6.3A8.113,8.113,0,0,1,3.5,6.472,6.282,6.282,0,0,1,4.723,4.723,2.957,2.957,0,0,1,6.472,3.5a8.113,8.113,0,0,1,2.974-.525,48.269,48.269,0,0,1,6.3-.175m0-2.8A51.682,51.682,0,0,0,9.27.175a10.8,10.8,0,0,0-3.848.7,6.847,6.847,0,0,0-2.8,1.749,6.847,6.847,0,0,0-1.749,2.8,7.97,7.97,0,0,0-.7,3.848A51.682,51.682,0,0,0,0,15.742a51.682,51.682,0,0,0,.175,6.472,10.8,10.8,0,0,0,.7,3.848,6.847,6.847,0,0,0,1.749,2.8,6.847,6.847,0,0,0,2.8,1.749,10.8,10.8,0,0,0,3.848.7,51.682,51.682,0,0,0,6.472.175,51.682,51.682,0,0,0,6.472-.175,10.8,10.8,0,0,0,3.848-.7,7.338,7.338,0,0,0,4.548-4.548,10.8,10.8,0,0,0,.7-3.848c0-1.749.175-2.274.175-6.472a51.682,51.682,0,0,0-.175-6.472,10.8,10.8,0,0,0-.7-3.848,6.847,6.847,0,0,0-1.749-2.8,6.847,6.847,0,0,0-2.8-1.749,10.8,10.8,0,0,0-3.848-.7A51.682,51.682,0,0,0,15.742,0m0,7.7A7.916,7.916,0,0,0,7.7,15.742,8.046,8.046,0,1,0,15.742,7.7m0,13.293a5.154,5.154,0,0,1-5.247-5.247,5.154,5.154,0,0,1,5.247-5.247,5.154,5.154,0,0,1,5.247,5.247,5.154,5.154,0,0,1-5.247,5.247m8.4-15.567a1.924,1.924,0,1,0,1.924,1.924,1.941,1.941,0,0,0-1.924-1.924"/></svg>