<svg xmlns="http://www.w3.org/2000/svg" xmlns:xlink="http://www.w3.org/1999/xlink" width="20.905" height="20.905" viewBox="0 0 20.905 20.905"><defs><clipPath id="a"><rect width="20.905" height="20.905" fill="none"/></clipPath></defs><g clip-path="url(#a)"><path d="M2.59,9.064A6.412,6.412,0,0,1,9.064,2.59a6.412,6.412,0,0,1,6.474,6.474,6.412,6.412,0,0,1-6.474,6.474A6.412,6.412,0,0,1,2.59,9.064ZM18.517,20.33a1.282,1.282,0,0,0,1.813-1.813L16.316,14.5a8.866,8.866,0,0,0,1.813-5.439A9.008,9.008,0,0,0,9.064,0,9.008,9.008,0,0,0,0,9.064a9.008,9.008,0,0,0,9.064,9.064A8.866,8.866,0,0,0,14.5,16.316Z" transform="translate(0 0)" fill="#343579"/></g></svg>