<svg xmlns="http://www.w3.org/2000/svg" width="31.484" height="25.537" viewBox="0 0 31.484 25.537"><defs><style>.a{fill-rule:evenodd;}</style></defs><path class="a" d="M47.97,27.537c11.894,0,18.366-9.8,18.366-18.366V8.3a14.218,14.218,0,0,0,3.148-3.323,14.52,14.52,0,0,1-3.673,1.049,6.805,6.805,0,0,0,2.8-3.5A16.043,16.043,0,0,1,64.587,4.1,6.247,6.247,0,0,0,59.864,2a6.572,6.572,0,0,0-6.472,6.472,3.41,3.41,0,0,0,.175,1.4A18.084,18.084,0,0,1,40.274,3.049,6.7,6.7,0,0,0,39.4,6.373,6.95,6.95,0,0,0,42.2,11.8a5.9,5.9,0,0,1-2.974-.875h0a6.392,6.392,0,0,0,5.247,6.3,5.392,5.392,0,0,1-1.749.175,2.977,2.977,0,0,1-1.224-.175,6.626,6.626,0,0,0,6.122,4.548,13.206,13.206,0,0,1-8.046,2.8A4.843,4.843,0,0,1,38,24.389a16.51,16.51,0,0,0,9.97,3.148" transform="translate(-38 -2)"/></svg>